Coordinates
version=1
nRows=14
nColumns=40
inDegrees=yes

Units are S.I. units (second, meters, Newtons, ...)
Angles are in degrees.

endheader
time	pelvis_tilt	pelvis_list	pelvis_rotation	pelvis_tx	pelvis_ty	pelvis_tz	hip_flexion_r	hip_adduction_r	hip_rotation_r	knee_angle_r	knee_angle_r_beta	ankle_angle_r	subtalar_angle_r	mtp_angle_r	hip_flexion_l	hip_adduction_l	hip_rotation_l	knee_angle_l	knee_angle_l_beta	ankle_angle_l	subtalar_angle_l	mtp_angle_l	lumbar_extension	lumbar_bending	lumbar_rotation	arm_flex_r	arm_add_r	arm_rot_r	elbow_flex_r	pro_sup_r	wrist_flex_r	wrist_dev_r	arm_flex_l	arm_add_l	arm_rot_l	elbow_flex_l	pro_sup_l	wrist_flex_l	wrist_dev_l
      0.45000000	      4.25742561	     -5.03098805	      1.50976480	     -0.54216736	      0.89884112	      1.02442155	     -7.19146835	      5.87522381	    -11.18637241	    -17.88150637	     -0.31209116	      9.90441136	      7.50086744	     -4.23467142	     20.90143544	      6.56290700	      8.28936053	    -43.74106842	     -0.76342566	      4.45365837	      5.77941365	    -12.60341278	    -10.18793553	      5.86270718	      5.44746638	     14.12765742	    -13.83488738	     16.50702160	     16.03465694	     89.95437384	      0.00000000	      0.00000000	      1.92863738	      7.55637917	     -9.67369091	     17.41119836	     89.95437384	      0.00000000	      0.00000000
      0.46000000	      4.32887621	     -4.83302820	      1.07507265	     -0.53020350	      0.89824372	      1.02436005	     -8.15850994	      5.52125576	    -11.21561304	    -17.86548096	     -0.31181147	      9.95127538	      8.00472285	     -4.79183030	     21.05750469	      6.38830673	      8.88408259	    -40.10427971	     -0.69995173	      4.25886966	      4.97646936	    -12.52512073	    -10.43671981	      5.57277808	      5.73180685	     15.15752032	    -13.88836784	     15.71689553	     16.59750032	     89.95437384	      0.00000000	      0.00000000	      1.20451157	      7.78310779	     -9.98173439	     16.12704275	     89.95437384	      0.00000000	      0.00000000
      0.47000000	      4.24382947	     -4.75320449	      0.60939018	     -0.51833627	      0.89723962	      1.02446360	     -8.89353921	      5.26792993	    -11.24584831	    -17.91825800	     -0.31273260	     10.00419142	      8.60939167	     -5.56078236	     21.36771151	      6.41118486	      9.60111925	    -36.48075622	     -0.63670931	      3.60343405	      3.68012277	    -12.36564739	    -10.51257171	      5.38545408	      6.04535111	     16.05537671	    -13.93924417	     14.74650159	     17.36032493	     89.95437384	      0.00000000	      0.00000000	      0.36152618	      8.13925687	    -11.31030903	     15.01749276	     89.95437384	      0.00000000	      0.00000000
      0.48000000	      3.96776158	     -4.62747182	      0.25411301	     -0.50665306	      0.89586071	      1.02412208	     -9.38031330	      5.01657439	    -11.10771297	    -18.04362929	     -0.31492074	     10.16928375	      8.54204195	     -5.93444579	     21.81436482	      6.26625363	     10.25997648	    -32.69584593	     -0.57065016	      2.76053467	      2.85089165	    -12.07641811	    -10.38725482	      5.19512727	      6.23920127	     16.86829816	    -14.06900649	     14.28301589	     18.26020762	     89.95437384	      0.00000000	      0.00000000	     -0.35474468	      8.32006711	    -11.95937814	     13.74575228	     89.95437384	      0.00000000	      0.00000000
      0.49000000	      3.43011249	     -4.77485456	     -0.11569205	     -0.49506722	      0.89399213	      1.02403222	     -9.52501171	      5.07194676	    -10.78764220	    -18.24746385	     -0.31847832	     10.09382955	      8.60369574	     -6.06697642	     22.55625040	      6.42465589	     10.65606185	    -29.11847587	     -0.50821328	      2.23816659	      2.06530550	    -11.81806407	     -9.99318216	      5.28670341	      6.35966643	     17.61858521	    -14.17837989	     13.99560867	     19.24247029	     89.95437384	      0.00000000	      0.00000000	     -1.24535712	      8.49387130	    -12.32261696	     12.78175381	     89.95437384	      0.00000000	      0.00000000
      0.50000000	      3.43852066	     -4.48371162	     -0.70636613	     -0.48286612	      0.89302708	      1.02400329	    -10.33273056	      4.53786266	    -10.58396497	    -18.39168782	     -0.32099551	     10.23042665	      8.75753240	     -6.59099997	     22.28156811	      6.32946247	     12.16968850	    -25.23985269	     -0.44051853	      1.48908699	      0.65265109	    -11.53335204	    -10.17605190	      4.85406395	      6.78091499	     18.18260277	    -14.22162004	     13.18790823	     20.46211334	     89.95437384	      0.00000000	      0.00000000	     -1.98614548	      8.74632023	    -13.09007168	     11.74892733	     89.95437384	      0.00000000	      0.00000000
      0.51000000	      2.80831719	     -4.63991562	     -1.01556611	     -0.47122449	      0.89094885	      1.02377100	    -10.31609485	      4.58767442	    -10.28341952	    -18.68135632	     -0.32605118	     10.07618630	      8.81083819	     -6.71181917	     22.98508085	      6.54550930	     12.63855243	    -21.97230675	     -0.38348910	      1.37955094	     -0.16607418	    -11.38405960	     -9.67103258	      4.96248931	      6.77642914	     18.73733824	    -14.27548090	     12.91529664	     21.71311686	     89.95437384	      0.00000000	      0.00000000	     -2.90539491	      8.87927289	    -13.37720352	     10.89019406	     89.95437384	      0.00000000	      0.00000000
      0.52000000	      2.43484191	     -4.50864834	     -1.43707421	     -0.45912233	      0.88928685	      1.02335318	    -10.56262962	      4.24491095	     -9.98125902	    -19.06591044	     -0.33276291	     10.07068214	      8.76314259	     -6.93361593	     23.13307663	      6.53113295	     13.63328164	    -18.69614774	     -0.32630934	      1.03563119	     -1.09663417	    -11.19172883	     -9.40790962	      4.75204000	      6.94966189	     19.04925087	    -14.36606462	     12.46555739	     23.21753881	     89.95437384	      0.00000000	      0.00000000	     -3.60692960	      8.95457327	    -13.88554323	      9.75530307	     89.95437384	      0.00000000	      0.00000000
      0.53000000	      2.30132104	     -4.30150140	     -1.83724144	     -0.44672154	      0.88798374	      1.02284168	    -11.11119518	      3.76374512	     -9.73835185	    -19.34793769	     -0.33768522	      9.86655060	      9.07254409	     -7.68198108	     23.00256962	      6.53745771	     15.13151277	    -15.86313803	     -0.27686399	      0.64785248	     -2.63650527	    -10.85339387	     -9.39049591	      4.44567384	      7.07572087	     19.30912332	    -14.33973053	     11.71611532	     24.71405759	     89.95437384	      0.00000000	      0.00000000	     -4.41147086	      9.15885280	    -14.75436311	      9.02349026	     89.95437384	      0.00000000	      0.00000000
      0.54000000	      1.71389658	     -4.32932314	     -2.02292709	     -0.43462354	      0.88589910	      1.02203463	    -11.03742312	      3.63179578	     -9.39740836	    -19.84392011	     -0.34634174	      9.56915514	      8.98758326	     -7.74191242	     23.64169092	      6.65017963	     15.80999678	    -13.86841534	     -0.24204951	      0.61917200	     -3.12870303	    -10.70845832	     -8.88174139	      4.44384263	      6.93399157	     19.43669795	    -14.41982026	     11.56169657	     26.36633388	     89.95437384	      0.00000000	      0.00000000	     -5.21700653	      9.23305760	    -14.86320703	      8.31238392	     89.95437384	      0.00000000	      0.00000000
      0.55000000	      1.32469008	     -4.14394257	     -2.35080279	     -0.42198640	      0.88410629	      1.02110061	    -11.10971440	      3.18268580	     -8.87844917	    -20.52001632	     -0.35814185	      9.33178949	      8.88312738	     -7.81965418	     24.04116492	      6.58797126	     17.06473890	    -12.53322532	     -0.21874605	      0.49356080	     -3.40092960	    -10.50472190	     -8.52984862	      4.20522357	      6.96250196	     19.36317932	    -14.53809371	     11.37823822	     28.10011316	     89.95437384	      0.00000000	      0.00000000	     -5.92608813	      9.25601935	    -15.00383113	      7.53996042	     89.95437384	      0.00000000	      0.00000000
      0.56000000	      1.06473212	     -4.11310122	     -2.40089457	     -0.40894271	      0.88243893	      1.02004530	    -11.42432601	      2.99638321	     -8.51042913	    -21.02596287	     -0.36697228	      9.03286785	      8.74951866	     -7.75841948	     24.53176859	      6.60292382	     17.57737500	    -12.25979238	     -0.21397374	      0.73581732	     -3.30040602	    -10.35312745	     -8.24882392	      4.13940438	      6.53976022	     19.49435676	    -14.39351182	     11.25176590	     29.24005943	     89.95437384	      0.00000000	      0.00000000	     -6.83821946	      9.34910496	    -15.04721052	      7.15120017	     89.95437384	      0.00000000	      0.00000000
      0.57000000	      0.87009268	     -3.81914572	     -2.94445674	     -0.39537268	      0.88098393	      1.01955202	    -11.65653472	      2.39961915	     -7.71850185	    -21.80655867	     -0.38059625	      8.40269941	      8.58790309	     -7.68233596	     24.70155139	      6.47741420	     17.86166681	    -12.47125823	     -0.21766452	      1.28242374	     -3.16667375	    -10.17567811	     -7.99367354	      3.71337444	      6.88766184	     19.02095125	    -14.50986376	     11.05344822	     30.94314356	     89.95437384	      0.00000000	      0.00000000	     -7.41440893	      9.38736651	    -15.19770061	      6.45651704	     89.95437384	      0.00000000	      0.00000000
      0.58000000	      0.70689207	     -3.61158167	     -3.19878256	     -0.38163116	      0.87949630	      1.01879082	    -11.90448714	      1.95701957	     -7.16067300	    -22.62109083	     -0.39481252	      7.85708176	      8.28673513	     -7.49853850	     24.88322421	      6.29143009	     17.19141834	    -13.28678069	     -0.23189807	      1.16173696	     -3.04033922	     -9.91198731	     -7.73201488	      3.39977835	      6.67726771	     18.87209618	    -14.29123601	     10.92171619	     31.90621414	     89.95437384	      0.00000000	      0.00000000	     -8.35380295	      9.55868678	    -15.17584690	      6.48636508	     89.95437384	      0.00000000	      0.00000000
